<?xml version="1.0"?>
<svg width="24" height="24" xmlns="http://www.w3.org/2000/svg" xmlns:svg="http://www.w3.org/2000/svg">
 <g class="layer">
  <title>Layer 1</title>
  <rect fill="white" height="24" id="svg_1" width="24" x="-0.19" y="0.19"/>
  <path clip-rule="evenodd" d="m0.04,12.17c0,-6.53 5.3,-11.83 11.82,-11.83c6.53,0 11.82,5.3 11.82,11.83c0,6.53 -5.3,11.83 -11.82,11.83c-6.53,0 -11.82,-5.3 -11.82,-11.83zm11.82,-7.09c-2.61,0 -4.73,2.11 -4.73,4.73c0,2.61 2.12,4.73 4.73,4.73c2.61,0 4.73,-2.11 4.73,-4.73c0,-2.61 -2.12,-4.73 -4.73,-4.73zm6.04,11.83c0.9,0.58 0.85,1.84 0.04,2.52c-1.64,1.38 -3.76,2.21 -6.07,2.21c-2.29,0 -4.41,-0.81 -6.04,-2.18c-0.83,-0.68 -0.88,-1.95 0.02,-2.53c0.29,-0.18 0.59,-0.33 0.93,-0.48c1.34,-0.55 3.02,-0.72 5.1,-0.72c2.07,0 3.78,0.17 5.12,0.7c0.33,0.13 0.64,0.29 0.93,0.48l-0.01,0z" fill="#323232" fill-rule="evenodd" id="svg_2"/>
 </g>
</svg>